<mxfile host="app.diagrams.net" modified="2023-08-24T22:31:13.922Z" agent="Mozilla/5.0 (Windows NT 10.0; Win64; x64) AppleWebKit/537.36 (KHTML, like Gecko) Chrome/114.0.0.0 Safari/537.36 OPR/100.0.0.0" version="21.6.9" etag="M8B2A2zIrYpPUgQSXM_x" type="github">
  <diagram name="Strona-1" id="KxuZ9-0OC4cGl_8yRtbb">
    <mxGraphModel>
      <root>
        <mxCell id="0" />
        <mxCell id="1" parent="0" />
      </root>
    </mxGraphModel>
  </diagram>
</mxfile>
